<svg width="264" height="238" viewBox="0 0 264 238" fill="none" xmlns="http://www.w3.org/2000/svg">
<circle cx="111" cy="88" r="50" fill="#EF8080"/>
<path d="M87 88.0003C188 133 163 156.007 196 139.008C229 122.008 264 177.005 264 177.005C264 177.005 209 240.008 187 235.007C165 230.007 118 235.007 59.0001 235.007C0.00018692 235.007 -8.99994 240.002 9.00007 235.002C27.0001 230.002 -13.9999 43.0002 87 88.0003Z" fill="#6FAAD7"/>
<line x1="48.8462" y1="24.5386" x2="74.4237" y2="42.1678" stroke="#EF8080" stroke-width="4"/>
<line x1="27.5816" y1="57.0864" x2="59.8703" y2="66.901" stroke="#EF8080" stroke-width="4"/>
<line x1="87.6006" y1="2.36544" x2="93.3309" y2="32.8968" stroke="#EF8080" stroke-width="4"/>
<line x1="134.49" y1="0.89898" x2="127.534" y2="31.1747" stroke="#EF8080" stroke-width="4"/>
<line x1="170.914" y1="22.4612" x2="153.34" y2="48.0773" stroke="#EF8080" stroke-width="4"/>
<line x1="190.162" y1="56.6278" x2="163.162" y2="75.9035" stroke="#EF8080" stroke-width="4"/>
<line x1="194.861" y1="98.2552" x2="163.412" y2="108.813" stroke="#EF8080" stroke-width="4"/>
</svg>
